<?xml version="1.0" encoding="utf-8"?>
<!-- Generator: Adobe Illustrator 19.0.0, SVG Export Plug-In . SVG Version: 6.00 Build 0)  -->
<svg version="1.1" id="Layer_1" xmlns="http://www.w3.org/2000/svg" xmlns:xlink="http://www.w3.org/1999/xlink" x="0px" y="0px"
	 width="23.25px" height="25.88px" viewBox="0 0 23.25 25.88" enable-background="new 0 0 23.25 25.88" xml:space="preserve">
<g id="miner">
	<g id="head">
		<rect id="XMLID_93_" x="1.67" y="9.03" fill="#010101" width="1.53" height="1.53"/>
		<rect id="XMLID_92_" x="3.2" y="9.03" fill="#633C28" width="1.53" height="1.53"/>
		<rect id="XMLID_91_" x="4.73" y="9.03" fill="#633C28" width="1.53" height="1.53"/>
		<rect id="XMLID_90_" x="6.27" y="9.03" fill="#633C28" width="1.53" height="1.53"/>
		<rect id="XMLID_89_" x="7.8" y="9.03" fill="#633C28" width="1.53" height="1.53"/>
		<rect id="XMLID_88_" x="9.33" y="9.03" fill="#C9917D" width="1.53" height="1.53"/>
		<rect id="XMLID_87_" x="10.86" y="9.03" fill="#C9917D" width="1.53" height="1.53"/>
		<rect id="XMLID_86_" x="12.39" y="9.03" fill="#C9917D" width="1.53" height="1.53"/>
		<rect id="XMLID_85_" x="13.92" y="9.03" fill="#010101" width="1.53" height="1.53"/>
		<rect id="XMLID_84_" x="15.45" y="9.03" fill="#633C28" width="1.53" height="1.53"/>
		<rect id="XMLID_83_" x="16.98" y="9.03" fill="#C9917D" width="1.53" height="1.53"/>
		<rect id="XMLID_82_" x="18.52" y="9.03" fill="#633C28" width="1.53" height="1.53"/>
		<rect id="XMLID_81_" x="20.05" y="9.03" fill="#010101" width="1.53" height="1.53"/>
		<rect id="XMLID_107_" x="3.2" y="10.56" fill="#010101" width="1.53" height="1.53"/>
		<rect id="XMLID_106_" x="4.73" y="10.56" fill="#633C28" width="1.53" height="1.53"/>
		<rect id="XMLID_105_" x="6.27" y="10.56" fill="#E5AC88" width="1.53" height="1.53"/>
		<rect id="XMLID_104_" x="7.8" y="10.56" fill="#C9917D" width="1.53" height="1.53"/>
		<rect id="XMLID_103_" x="9.33" y="10.56" fill="#E5AC88" width="1.53" height="1.53"/>
		<rect id="XMLID_102_" x="10.86" y="10.56" fill="#E5AC88" width="1.53" height="1.53"/>
		<rect id="XMLID_101_" x="12.39" y="10.56" fill="#E5AC88" width="1.53" height="1.53"/>
		<rect id="XMLID_100_" x="13.92" y="10.56" fill="#E5AC88" width="1.53" height="1.53"/>
		<rect id="XMLID_99_" x="15.45" y="10.56" fill="#E5AC88" width="1.53" height="1.53"/>
		<rect id="XMLID_98_" x="16.98" y="10.56" fill="#E5AC88" width="1.53" height="1.53"/>
		<rect id="XMLID_97_" x="18.52" y="10.56" fill="#E5AC88" width="1.53" height="1.53"/>
		<rect id="XMLID_96_" x="20.05" y="10.56" fill="#010101" width="1.53" height="1.53"/>
		<rect id="XMLID_121_" x="4.73" y="12.09" fill="#010101" width="1.53" height="1.53"/>
		<rect id="XMLID_120_" x="6.27" y="12.09" fill="#010101" width="1.53" height="1.53"/>
		<rect id="XMLID_119_" x="7.8" y="12.09" fill="#C9917D" width="1.53" height="1.53"/>
		<rect id="XMLID_118_" x="9.33" y="12.09" fill="#C9917D" width="1.53" height="1.53"/>
		<rect id="XMLID_117_" x="10.86" y="12.09" fill="#E5AC88" width="1.53" height="1.53"/>
		<rect id="XMLID_116_" x="12.39" y="12.09" fill="#E5AC88" width="1.53" height="1.53"/>
		<rect id="XMLID_115_" x="13.92" y="12.09" fill="#633C28" width="1.53" height="1.53"/>
		<rect id="XMLID_114_" x="15.45" y="12.09" fill="#633C28" width="1.53" height="1.53"/>
		<rect id="XMLID_113_" x="16.98" y="12.09" fill="#633C28" width="1.53" height="1.53"/>
		<rect id="XMLID_112_" x="18.52" y="12.09" fill="#010101" width="1.53" height="1.53"/>
		<rect id="XMLID_136_" x="4.73" y="13.63" fill="#010101" width="1.53" height="1.53"/>
		<rect id="XMLID_135_" x="6.27" y="13.63" fill="#243049" width="1.53" height="1.53"/>
		<rect id="XMLID_134_" x="7.8" y="13.63" fill="#364B63" width="1.53" height="1.53"/>
		<rect id="XMLID_133_" x="9.33" y="13.63" fill="#C9917D" width="1.53" height="1.53"/>
		<rect id="XMLID_132_" x="10.86" y="13.63" fill="#C9917D" width="1.53" height="1.53"/>
		<rect id="XMLID_131_" x="12.39" y="13.63" fill="#C9917D" width="1.53" height="1.53"/>
		<rect id="XMLID_130_" x="13.92" y="13.63" fill="#C9917D" width="1.53" height="1.53"/>
		<rect id="XMLID_129_" x="15.45" y="13.63" fill="#C9917D" width="1.53" height="1.53"/>
		<rect id="XMLID_128_" x="16.98" y="13.63" fill="#010101" width="1.53" height="1.53"/>
	</g>
	<g id="helmet">
		<rect id="XMLID_9_" x="6.27" y="1.38" fill="#010101" width="1.53" height="1.53"/>
		<rect id="XMLID_10_" x="7.8" y="1.38" fill="#010101" width="1.53" height="1.53"/>
		<rect id="XMLID_11_" x="9.33" y="1.38" fill="#010101" width="1.53" height="1.53"/>
		<rect id="XMLID_12_" x="10.86" y="1.38" fill="#010101" width="1.53" height="1.53"/>
		<rect id="XMLID_13_" x="12.39" y="1.38" fill="#010101" width="1.53" height="1.53"/>
		<rect id="XMLID_14_" x="13.92" y="1.38" fill="#010101" width="1.53" height="1.53"/>
		<rect id="XMLID_15_" x="15.45" y="1.38" fill="#010101" width="1.53" height="1.53"/>
		<rect id="XMLID_16_" x="16.98" y="1.38" fill="#010101" width="1.53" height="1.53"/>
		<rect id="XMLID_17_" x="18.52" y="1.38" fill="#010101" width="1.53" height="1.53"/>
		<rect id="XMLID_31_" x="4.73" y="2.91" fill="#010101" width="1.53" height="1.53"/>
		<rect id="XMLID_30_" x="6.27" y="2.91" fill="#BB9A2F" width="1.53" height="1.53"/>
		<rect id="XMLID_29_" x="7.8" y="2.91" fill="#BB9A2F" width="1.53" height="1.53"/>
		<rect id="XMLID_28_" x="9.33" y="2.91" fill="#BB9A2F" width="1.53" height="1.53"/>
		<rect id="XMLID_27_" x="10.86" y="2.91" fill="#F4CE11" width="1.53" height="1.53"/>
		<rect id="XMLID_26_" x="12.39" y="2.91" fill="#F4CE11" width="1.53" height="1.53"/>
		<rect id="XMLID_25_" x="13.92" y="2.91" fill="#F4CE11" width="1.53" height="1.53"/>
		<rect id="XMLID_24_" x="15.45" y="2.91" fill="#BB9A2F" width="1.53" height="1.53"/>
		<rect id="XMLID_23_" x="16.98" y="2.91" fill="#5C605D" width="1.53" height="1.53"/>
		<rect id="XMLID_22_" x="18.52" y="2.91" fill="#FBF7C5" width="1.53" height="1.53"/>
		<rect id="XMLID_21_" x="20.05" y="2.91" fill="#010101" width="1.53" height="1.53"/>
		<rect id="XMLID_47_" x="3.2" y="4.44" fill="#010101" width="1.53" height="1.53"/>
		<rect id="XMLID_46_" x="4.73" y="4.44" fill="#BB9A2F" width="1.53" height="1.53"/>
		<rect id="XMLID_45_" x="6.27" y="4.44" fill="#BB9A2F" width="1.53" height="1.53"/>
		<rect id="XMLID_44_" x="7.8" y="4.44" fill="#BB9A2F" width="1.53" height="1.53"/>
		<rect id="XMLID_43_" x="9.33" y="4.44" fill="#F4CE11" width="1.53" height="1.53"/>
		<rect id="XMLID_42_" x="10.86" y="4.44" fill="#F4CE11" width="1.53" height="1.53"/>
		<rect id="XMLID_41_" x="12.39" y="4.44" fill="#F4CE11" width="1.53" height="1.53"/>
		<rect id="XMLID_40_" x="13.92" y="4.44" fill="#BB9A2F" width="1.53" height="1.53"/>
		<rect id="XMLID_39_" x="15.45" y="4.44" fill="#5C605D" width="1.53" height="1.53"/>
		<rect id="XMLID_38_" x="16.98" y="4.44" fill="#FBF7C5" width="1.53" height="1.53"/>
		<rect id="XMLID_37_" x="18.52" y="4.44" fill="#FBF7C5" width="1.53" height="1.53"/>
		<rect id="XMLID_36_" x="20.05" y="4.44" fill="#FBF7C5" width="1.53" height="1.53"/>
		<rect id="XMLID_35_" x="21.58" y="4.44" fill="#010101" width="1.53" height="1.53"/>
		<rect id="XMLID_63_" x="1.67" y="5.97" fill="#010101" width="1.53" height="1.53"/>
		<rect id="XMLID_62_" x="3.2" y="5.97" fill="#010101" width="1.53" height="1.53"/>
		<rect id="XMLID_61_" x="4.73" y="5.97" fill="#384A63" width="1.53" height="1.53"/>
		<rect id="XMLID_60_" x="6.27" y="5.97" fill="#384A63" width="1.53" height="1.53"/>
		<rect id="XMLID_59_" x="7.8" y="5.97" fill="#384A63" width="1.53" height="1.53"/>
		<rect id="XMLID_58_" x="9.33" y="5.97" fill="#384A63" width="1.53" height="1.53"/>
		<rect id="XMLID_57_" x="10.86" y="5.97" fill="#4C9DA6" width="1.53" height="1.53"/>
		<rect id="XMLID_56_" x="12.39" y="5.97" fill="#4C9DA6" width="1.53" height="1.53"/>
		<rect id="XMLID_55_" x="13.92" y="5.97" fill="#4C9DA6" width="1.53" height="1.53"/>
		<rect id="XMLID_54_" x="15.45" y="5.97" fill="#384A63" width="1.53" height="1.53"/>
		<rect id="XMLID_53_" x="16.98" y="5.97" fill="#5C605D" width="1.53" height="1.53"/>
		<rect id="XMLID_52_" x="18.52" y="5.97" fill="#FBF7C5" width="1.53" height="1.53"/>
		<rect id="XMLID_51_" x="20.05" y="5.97" fill="#010101" width="1.53" height="1.53"/>
		<rect id="XMLID_79_" x="0.14" y="7.5" fill="#010101" width="1.53" height="1.53"/>
		<rect id="XMLID_78_" x="1.67" y="7.5" fill="#BB9A2F" width="1.53" height="1.53"/>
		<rect id="XMLID_77_" x="3.2" y="7.5" fill="#F4CE11" width="1.53" height="1.53"/>
		<rect id="XMLID_76_" x="4.73" y="7.5" fill="#BB9A2F" width="1.53" height="1.53"/>
		<rect id="XMLID_75_" x="6.27" y="7.5" fill="#F4CE11" width="1.53" height="1.53"/>
		<rect id="XMLID_74_" x="7.8" y="7.5" fill="#F4CE11" width="1.53" height="1.53"/>
		<rect id="XMLID_73_" x="9.33" y="7.5" fill="#F4CE11" width="1.53" height="1.53"/>
		<rect id="XMLID_72_" x="10.86" y="7.5" fill="#F4CE11" width="1.53" height="1.53"/>
		<rect id="XMLID_71_" x="12.39" y="7.5" fill="#F4CE11" width="1.53" height="1.53"/>
		<rect id="XMLID_70_" x="13.92" y="7.5" fill="#F4CE11" width="1.53" height="1.53"/>
		<rect id="XMLID_69_" x="15.45" y="7.5" fill="#F4CE11" width="1.53" height="1.53"/>
		<rect id="XMLID_68_" x="16.98" y="7.5" fill="#F4CE11" width="1.53" height="1.53"/>
		<rect id="XMLID_67_" x="18.52" y="7.5" fill="#F4CE11" width="1.53" height="1.53"/>
		<rect id="XMLID_66_" x="20.05" y="7.5" fill="#F4CE11" width="1.53" height="1.53"/>
		<rect id="XMLID_65_" x="21.58" y="7.5" fill="#010101" width="1.53" height="1.53"/>
	</g>
	<g id="body">
		<rect id="XMLID_152_" x="3.2" y="15.16" fill="#010101" width="1.53" height="1.53"/>
		<rect id="XMLID_151_" x="4.73" y="15.16" fill="#243049" width="1.53" height="1.53"/>
		<rect id="XMLID_150_" x="6.27" y="15.16" fill="#364B63" width="1.53" height="1.53"/>
		<rect id="XMLID_149_" x="7.8" y="15.16" fill="#A5DACF" width="1.53" height="1.53"/>
		<rect id="XMLID_148_" x="9.33" y="15.16" fill="#4C9EA5" width="1.53" height="1.53"/>
		<rect id="XMLID_147_" x="10.86" y="15.16" fill="#010101" width="1.53" height="1.53"/>
		<rect id="XMLID_146_" x="12.39" y="15.16" fill="#010101" width="1.53" height="1.53"/>
		<rect id="XMLID_145_" x="13.92" y="15.16" fill="#010101" width="1.53" height="1.53"/>
		<rect id="XMLID_144_" x="15.45" y="15.16" fill="#010101" width="1.53" height="1.53"/>
		<rect id="XMLID_143_" x="16.98" y="15.16" fill="#010101" width="1.53" height="1.53"/>
		<rect id="XMLID_142_" x="18.52" y="15.16" fill="#010101" width="1.53" height="1.53"/>
		<rect id="XMLID_167_" x="3.2" y="16.69" fill="#010101" width="1.53" height="1.53"/>
		<rect id="XMLID_166_" x="4.73" y="16.69" fill="#364B63" width="1.53" height="1.53"/>
		<rect id="XMLID_165_" x="6.27" y="16.69" fill="#4C9EA5" width="1.53" height="1.53"/>
		<rect id="XMLID_164_" x="7.8" y="16.69" fill="#4C9EA5" width="1.53" height="1.53"/>
		<rect id="XMLID_163_" x="9.33" y="16.69" fill="#A5DACF" width="1.53" height="1.53"/>
		<rect id="XMLID_162_" x="10.86" y="16.69" fill="#A5DACF" width="1.53" height="1.53"/>
		<rect id="XMLID_161_" x="12.39" y="16.69" fill="#4C9EA5" width="1.53" height="1.53"/>
		<rect id="XMLID_160_" x="13.92" y="16.69" fill="#4C9EA5" width="1.53" height="1.53"/>
		<rect id="XMLID_159_" x="15.45" y="16.69" fill="#E5AC88" width="1.53" height="1.53"/>
		<rect id="XMLID_158_" x="16.98" y="16.69" fill="#E5AC88" width="1.53" height="1.53"/>
		<rect id="XMLID_157_" x="18.52" y="16.69" fill="#E5AC88" width="1.53" height="1.53"/>
		<rect id="XMLID_156_" x="20.05" y="16.69" fill="#010101" width="1.53" height="1.53"/>
		<rect id="XMLID_182_" x="3.2" y="18.22" fill="#010101" width="1.53" height="1.53"/>
		<rect id="XMLID_181_" x="4.73" y="18.22" fill="#010101" width="1.53" height="1.53"/>
		<rect id="XMLID_180_" x="6.27" y="18.22" fill="#243049" width="1.53" height="1.53"/>
		<rect id="XMLID_179_" x="7.8" y="18.22" fill="#4C9EA5" width="1.53" height="1.53"/>
		<rect id="XMLID_178_" x="9.33" y="18.22" fill="#4C9EA5" width="1.53" height="1.53"/>
		<rect id="XMLID_177_" x="10.86" y="18.22" fill="#4C9EA5" width="1.53" height="1.53"/>
		<rect id="XMLID_176_" x="12.39" y="18.22" fill="#4C9EA5" width="1.53" height="1.53"/>
		<rect id="XMLID_175_" x="13.92" y="18.22" fill="#4C9EA5" width="1.53" height="1.53"/>
		<rect id="XMLID_174_" x="15.45" y="18.22" fill="#C9917D" width="1.53" height="1.53"/>
		<rect id="XMLID_173_" x="16.98" y="18.22" fill="#C9917D" width="1.53" height="1.53"/>
		<rect id="XMLID_172_" x="18.52" y="18.22" fill="#010101" width="1.53" height="1.53"/>
		<rect id="XMLID_198_" x="1.67" y="19.75" fill="#010101" width="1.53" height="1.53"/>
		<rect id="XMLID_197_" x="3.2" y="19.75" fill="#757575" width="1.53" height="1.53"/>
		<rect id="XMLID_196_" x="4.73" y="19.75" fill="#A5DACF" width="1.53" height="1.53"/>
		<rect id="XMLID_195_" x="6.27" y="19.75" fill="#364B63" width="1.53" height="1.53"/>
		<rect id="XMLID_194_" x="7.8" y="19.75" fill="#364B63" width="1.53" height="1.53"/>
		<rect id="XMLID_193_" x="9.33" y="19.75" fill="#364B63" width="1.53" height="1.53"/>
		<rect id="XMLID_192_" x="10.86" y="19.75" fill="#010101" width="1.53" height="1.53"/>
		<rect id="XMLID_191_" x="12.39" y="19.75" fill="#010101" width="1.53" height="1.53"/>
		<rect id="XMLID_190_" x="13.92" y="19.75" fill="#243049" width="1.53" height="1.53"/>
		<rect id="XMLID_189_" x="15.45" y="19.75" fill="#243049" width="1.53" height="1.53"/>
		<rect id="XMLID_188_" x="16.98" y="19.75" fill="#010101" width="1.53" height="1.53"/>
		<rect id="XMLID_213_" x="1.67" y="21.28" fill="#010101" width="1.53" height="1.53"/>
		<rect id="XMLID_212_" x="3.2" y="21.28" fill="#989898" width="1.53" height="1.53"/>
		<rect id="XMLID_211_" x="4.73" y="21.28" fill="#A5DACF" width="1.53" height="1.53"/>
		<rect id="XMLID_210_" x="6.27" y="21.28" fill="#364B63" width="1.53" height="1.53"/>
		<rect id="XMLID_209_" x="7.8" y="21.28" fill="#364B63" width="1.53" height="1.53"/>
		<rect id="XMLID_208_" x="9.33" y="21.28" fill="#364B63" width="1.53" height="1.53"/>
		<rect id="XMLID_207_" x="10.86" y="21.28" fill="#010101" width="1.53" height="1.53"/>
		<rect id="XMLID_206_" x="12.39" y="21.28" fill="#243049" width="1.53" height="1.53"/>
		<rect id="XMLID_205_" x="13.92" y="21.28" fill="#243049" width="1.53" height="1.53"/>
		<rect id="XMLID_204_" x="15.45" y="21.28" fill="#243049" width="1.53" height="1.53"/>
		<rect id="XMLID_203_" x="16.98" y="21.28" fill="#243049" width="1.53" height="1.53"/>
		<rect id="XMLID_202_" x="18.52" y="21.28" fill="#010101" width="1.53" height="1.53"/>
		<rect id="XMLID_228_" x="1.67" y="22.81" fill="#010101" width="1.53" height="1.53"/>
		<rect id="XMLID_227_" x="3.2" y="22.81" fill="#757575" width="1.53" height="1.53"/>
		<rect id="XMLID_226_" x="4.73" y="22.81" fill="#D2D3D3" width="1.53" height="1.53"/>
		<rect id="XMLID_225_" x="6.27" y="22.81" fill="#010101" width="1.53" height="1.53"/>
		<rect id="XMLID_224_" x="7.8" y="22.81" fill="#010101" width="1.53" height="1.53"/>
		<rect id="XMLID_223_" x="9.33" y="22.81" fill="#010101" width="1.53" height="1.53"/>
		<rect id="XMLID_221_" x="12.39" y="22.81" fill="#010101" width="1.53" height="1.53"/>
		<rect id="XMLID_220_" x="13.92" y="22.81" fill="#757575" width="1.53" height="1.53"/>
		<rect id="XMLID_219_" x="15.45" y="22.81" fill="#D2D3D3" width="1.53" height="1.53"/>
		<rect id="XMLID_218_" x="16.98" y="22.81" fill="#D2D3D3" width="1.53" height="1.53"/>
		<rect id="XMLID_217_" x="18.52" y="22.81" fill="#757575" width="1.53" height="1.53"/>
		<rect id="XMLID_216_" x="20.05" y="22.81" fill="#010101" width="1.53" height="1.53"/>
		<rect id="XMLID_242_" x="3.2" y="24.34" fill="#010101" width="1.53" height="1.53"/>
		<rect id="XMLID_241_" x="4.73" y="24.34" fill="#010101" width="1.53" height="1.53"/>
		<rect id="XMLID_235_" x="13.92" y="24.34" fill="#010101" width="1.53" height="1.53"/>
		<rect id="XMLID_234_" x="15.45" y="24.34" fill="#010101" width="1.53" height="1.53"/>
		<rect id="XMLID_233_" x="16.98" y="24.34" fill="#010101" width="1.53" height="1.53"/>
		<rect id="XMLID_232_" x="18.52" y="24.34" fill="#010101" width="1.53" height="1.53"/>
	</g>
</g>
<g id="XMLID_123_">
</g>
<g id="XMLID_124_">
</g>
<g id="XMLID_125_">
</g>
<g id="XMLID_126_">
</g>
<g id="XMLID_127_">
</g>
<g id="XMLID_137_">
</g>
</svg>
